<mxfile host="app.diagrams.net" modified="2023-06-30T08:52:21.624Z" agent="Mozilla/5.0 (Windows NT 10.0; Win64; x64) AppleWebKit/537.36 (KHTML, like Gecko) Chrome/112.0.0.0 Safari/537.36" etag="g5jD-PnurW-tbm3ksHrH" version="21.3.8" type="github">
  <diagram name="第 1 页" id="gIx5UFUmhoo6wP61woTE">
    <mxGraphModel dx="1050" dy="1662" grid="1" gridSize="10" guides="1" tooltips="1" connect="1" arrows="1" fold="1" page="1" pageScale="1" pageWidth="827" pageHeight="1169" math="0" shadow="0">
      <root>
        <mxCell id="0" />
        <mxCell id="1" parent="0" />
        <mxCell id="DhHxbanbOYP3ZtykU47z-32" value="" style="rounded=1;whiteSpace=wrap;html=1;shadow=0;dashed=1;dashPattern=12 12;" vertex="1" parent="1">
          <mxGeometry x="211.66666666666669" y="238.74999999999994" width="550" height="158.125" as="geometry" />
        </mxCell>
        <mxCell id="DhHxbanbOYP3ZtykU47z-23" value="" style="rounded=1;whiteSpace=wrap;html=1;shadow=0;dashed=1;dashPattern=12 12;" vertex="1" parent="1">
          <mxGeometry x="286.6666666666667" y="23.124999999999993" width="533.3333333333334" height="114.99999999999997" as="geometry" />
        </mxCell>
        <mxCell id="DhHxbanbOYP3ZtykU47z-8" value="&lt;font style=&quot;font-size: 22px;&quot;&gt;预压缩&lt;/font&gt;" style="rounded=0;whiteSpace=wrap;html=1;" vertex="1" parent="1">
          <mxGeometry x="320" y="51.875" width="100" height="57.499999999999986" as="geometry" />
        </mxCell>
        <mxCell id="DhHxbanbOYP3ZtykU47z-9" value="&lt;font style=&quot;font-size: 22px;&quot;&gt;构建索引表&lt;/font&gt;" style="rounded=0;whiteSpace=wrap;html=1;" vertex="1" parent="1">
          <mxGeometry x="636.6666666666666" y="51.875" width="133.33333333333334" height="57.499999999999986" as="geometry" />
        </mxCell>
        <mxCell id="DhHxbanbOYP3ZtykU47z-13" style="edgeStyle=orthogonalEdgeStyle;rounded=0;orthogonalLoop=1;jettySize=auto;html=1;exitX=1;exitY=0.5;exitDx=0;exitDy=0;entryX=0;entryY=0.5;entryDx=0;entryDy=0;" edge="1" parent="1" source="DhHxbanbOYP3ZtykU47z-11" target="DhHxbanbOYP3ZtykU47z-9">
          <mxGeometry relative="1" as="geometry" />
        </mxCell>
        <mxCell id="DhHxbanbOYP3ZtykU47z-11" value="&lt;font style=&quot;font-size: 22px;&quot;&gt;划分子集&lt;/font&gt;" style="rounded=0;whiteSpace=wrap;html=1;" vertex="1" parent="1">
          <mxGeometry x="470" y="51.875" width="116.66666666666667" height="57.499999999999986" as="geometry" />
        </mxCell>
        <mxCell id="DhHxbanbOYP3ZtykU47z-12" style="edgeStyle=orthogonalEdgeStyle;rounded=0;orthogonalLoop=1;jettySize=auto;html=1;exitX=1;exitY=0.5;exitDx=0;exitDy=0;entryX=0;entryY=0.5;entryDx=0;entryDy=0;" edge="1" parent="1" source="DhHxbanbOYP3ZtykU47z-8" target="DhHxbanbOYP3ZtykU47z-11">
          <mxGeometry relative="1" as="geometry" />
        </mxCell>
        <mxCell id="DhHxbanbOYP3ZtykU47z-14" value="&lt;font style=&quot;font-size: 22px;&quot;&gt;模型推理&lt;/font&gt;" style="rounded=0;whiteSpace=wrap;html=1;" vertex="1" parent="1">
          <mxGeometry x="478.33333333333337" y="166.87499999999994" width="100" height="57.499999999999986" as="geometry" />
        </mxCell>
        <mxCell id="DhHxbanbOYP3ZtykU47z-15" style="edgeStyle=orthogonalEdgeStyle;rounded=0;orthogonalLoop=1;jettySize=auto;html=1;exitX=0.5;exitY=1;exitDx=0;exitDy=0;entryX=0.5;entryY=0;entryDx=0;entryDy=0;" edge="1" parent="1" source="DhHxbanbOYP3ZtykU47z-11" target="DhHxbanbOYP3ZtykU47z-14">
          <mxGeometry relative="1" as="geometry" />
        </mxCell>
        <mxCell id="DhHxbanbOYP3ZtykU47z-17" style="edgeStyle=orthogonalEdgeStyle;rounded=0;orthogonalLoop=1;jettySize=auto;html=1;exitX=1;exitY=0.5;exitDx=0;exitDy=0;entryX=0;entryY=0.5;entryDx=0;entryDy=0;" edge="1" parent="1" source="DhHxbanbOYP3ZtykU47z-16" target="DhHxbanbOYP3ZtykU47z-8">
          <mxGeometry relative="1" as="geometry" />
        </mxCell>
        <mxCell id="DhHxbanbOYP3ZtykU47z-16" value="&lt;font style=&quot;font-size: 22px;&quot;&gt;分区量化&lt;/font&gt;" style="rounded=0;whiteSpace=wrap;html=1;" vertex="1" parent="1">
          <mxGeometry x="153.33333333333334" y="51.875" width="116.66666666666667" height="57.499999999999986" as="geometry" />
        </mxCell>
        <mxCell id="DhHxbanbOYP3ZtykU47z-19" style="edgeStyle=orthogonalEdgeStyle;rounded=0;orthogonalLoop=1;jettySize=auto;html=1;exitX=1;exitY=0.5;exitDx=0;exitDy=0;" edge="1" parent="1" source="DhHxbanbOYP3ZtykU47z-18" target="DhHxbanbOYP3ZtykU47z-16">
          <mxGeometry relative="1" as="geometry" />
        </mxCell>
        <mxCell id="DhHxbanbOYP3ZtykU47z-18" value="&lt;font style=&quot;font-size: 22px;&quot;&gt;原始图像&lt;/font&gt;" style="text;html=1;strokeColor=none;fillColor=none;align=center;verticalAlign=middle;whiteSpace=wrap;rounded=0;" vertex="1" parent="1">
          <mxGeometry x="20" y="59.0625" width="100" height="43.12499999999999" as="geometry" />
        </mxCell>
        <mxCell id="DhHxbanbOYP3ZtykU47z-20" value="&lt;font style=&quot;font-size: 22px;&quot;&gt;无损校验&lt;/font&gt;" style="rounded=0;whiteSpace=wrap;html=1;" vertex="1" parent="1">
          <mxGeometry x="628.3333333333334" y="166.87499999999994" width="100" height="57.499999999999986" as="geometry" />
        </mxCell>
        <mxCell id="DhHxbanbOYP3ZtykU47z-21" style="edgeStyle=orthogonalEdgeStyle;rounded=0;orthogonalLoop=1;jettySize=auto;html=1;exitX=1;exitY=0.5;exitDx=0;exitDy=0;entryX=0;entryY=0.5;entryDx=0;entryDy=0;" edge="1" parent="1" source="DhHxbanbOYP3ZtykU47z-14" target="DhHxbanbOYP3ZtykU47z-20">
          <mxGeometry relative="1" as="geometry" />
        </mxCell>
        <mxCell id="DhHxbanbOYP3ZtykU47z-24" value="&lt;font style=&quot;font-size: 22px;&quot;&gt;分组算法&lt;/font&gt;" style="text;html=1;strokeColor=none;fillColor=none;align=center;verticalAlign=middle;whiteSpace=wrap;rounded=0;" vertex="1" parent="1">
          <mxGeometry x="461.6666666666667" y="-30" width="133.33333333333334" height="57.499999999999986" as="geometry" />
        </mxCell>
        <mxCell id="DhHxbanbOYP3ZtykU47z-25" value="&lt;font style=&quot;font-size: 22px;&quot;&gt;构建编码表&lt;/font&gt;" style="rounded=0;whiteSpace=wrap;html=1;" vertex="1" parent="1">
          <mxGeometry x="620" y="281.875" width="116.66666666666667" height="57.499999999999986" as="geometry" />
        </mxCell>
        <mxCell id="DhHxbanbOYP3ZtykU47z-26" style="edgeStyle=orthogonalEdgeStyle;rounded=0;orthogonalLoop=1;jettySize=auto;html=1;exitX=0.5;exitY=1;exitDx=0;exitDy=0;" edge="1" parent="1" source="DhHxbanbOYP3ZtykU47z-20" target="DhHxbanbOYP3ZtykU47z-25">
          <mxGeometry relative="1" as="geometry" />
        </mxCell>
        <mxCell id="DhHxbanbOYP3ZtykU47z-27" value="&lt;font style=&quot;font-size: 22px;&quot;&gt;子集内编码&lt;/font&gt;" style="rounded=0;whiteSpace=wrap;html=1;" vertex="1" parent="1">
          <mxGeometry x="361.6666666666667" y="253.125" width="116.66666666666667" height="57.499999999999986" as="geometry" />
        </mxCell>
        <mxCell id="DhHxbanbOYP3ZtykU47z-29" style="edgeStyle=orthogonalEdgeStyle;rounded=0;orthogonalLoop=1;jettySize=auto;html=1;exitX=0.5;exitY=1;exitDx=0;exitDy=0;entryX=1;entryY=0.25;entryDx=0;entryDy=0;" edge="1" parent="1" source="DhHxbanbOYP3ZtykU47z-20" target="DhHxbanbOYP3ZtykU47z-27">
          <mxGeometry relative="1" as="geometry" />
        </mxCell>
        <mxCell id="DhHxbanbOYP3ZtykU47z-28" style="edgeStyle=orthogonalEdgeStyle;rounded=0;orthogonalLoop=1;jettySize=auto;html=1;exitX=0.5;exitY=1;exitDx=0;exitDy=0;entryX=0.5;entryY=1;entryDx=0;entryDy=0;" edge="1" parent="1" source="DhHxbanbOYP3ZtykU47z-25" target="DhHxbanbOYP3ZtykU47z-27">
          <mxGeometry relative="1" as="geometry" />
        </mxCell>
        <mxCell id="DhHxbanbOYP3ZtykU47z-30" value="&lt;font style=&quot;font-size: 22px;&quot;&gt;编码流&lt;/font&gt;" style="text;html=1;strokeColor=none;fillColor=none;align=center;verticalAlign=middle;whiteSpace=wrap;rounded=0;" vertex="1" parent="1">
          <mxGeometry x="211.66666666666669" y="260.3125" width="100" height="43.12499999999999" as="geometry" />
        </mxCell>
        <mxCell id="DhHxbanbOYP3ZtykU47z-31" style="edgeStyle=orthogonalEdgeStyle;rounded=0;orthogonalLoop=1;jettySize=auto;html=1;exitX=0;exitY=0.5;exitDx=0;exitDy=0;entryX=1;entryY=0.5;entryDx=0;entryDy=0;" edge="1" parent="1" source="DhHxbanbOYP3ZtykU47z-27" target="DhHxbanbOYP3ZtykU47z-30">
          <mxGeometry relative="1" as="geometry" />
        </mxCell>
        <mxCell id="DhHxbanbOYP3ZtykU47z-33" value="&lt;font style=&quot;font-size: 22px;&quot;&gt;子集次优编码&lt;/font&gt;" style="text;html=1;strokeColor=none;fillColor=none;align=center;verticalAlign=middle;whiteSpace=wrap;rounded=0;" vertex="1" parent="1">
          <mxGeometry x="395" y="396.8749999999999" width="166.66666666666669" height="43.12499999999999" as="geometry" />
        </mxCell>
      </root>
    </mxGraphModel>
  </diagram>
</mxfile>
